G04 start of page 9 for group -4078 idx -4078 *
G04 Title: (unknown), bottomsilk *
G04 Creator: pcb 1.99z *
G04 CreationDate: Tue 11 Mar 2014 08:59:09 PM GMT UTC *
G04 For: jpuls *
G04 Format: Gerber/RS-274X *
G04 PCB-Dimensions (mil): 4500.00 1560.00 *
G04 PCB-Coordinate-Origin: lower left *
%MOIN*%
%FSLAX25Y25*%
%LNBOTTOMSILK*%
%ADD48C,0.0250*%
%ADD47C,0.0100*%
G54D47*X59100Y91500D02*Y68600D01*
X70700Y84500D02*X49100D01*
X49000Y84400D01*
X70600Y77400D02*X52300D01*
X68600Y86300D02*Y90300D01*
X65400Y86300D02*X66700D01*
X67400Y87000D02*X66700Y86300D01*
X67400Y87000D02*Y89600D01*
X66700Y90300D01*
X65400D02*X66700D01*
X62200D02*X61700Y89800D01*
X62200Y90300D02*X63700D01*
X64200Y89800D02*X63700Y90300D01*
X64200Y88800D02*Y89800D01*
Y88800D02*X63700Y88300D01*
X62200D02*X63700D01*
X62200D02*X61700Y87800D01*
Y86800D02*Y87800D01*
X62200Y86300D02*X61700Y86800D01*
X62200Y86300D02*X63700D01*
X64200Y86800D02*X63700Y86300D01*
X55900Y90300D02*X56900D01*
X56400Y86300D02*Y90300D01*
X55900Y86300D02*X56900D01*
X54700D02*Y90300D01*
X52200Y86300D01*
Y90300D01*
X66800Y78900D02*X68100D01*
X68800Y79600D02*X68100Y78900D01*
X68800Y79600D02*Y82200D01*
X68100Y82900D01*
X66800D02*X68100D01*
X65600Y78900D02*Y82900D01*
X63600Y78900D02*X65600D01*
X62400D02*Y82900D01*
Y80900D02*X60400Y82900D01*
X62400Y80900D02*X60400Y78900D01*
X57400Y82900D02*X56400Y78900D01*
X55400Y82900D01*
X52200Y80900D02*X54200D01*
X53200Y79900D02*Y81900D01*
X68400Y75500D02*X67900Y75000D01*
X68400Y75500D02*X69900D01*
X70400Y75000D02*X69900Y75500D01*
X70400Y72000D02*Y75000D01*
Y72000D02*X69900Y71500D01*
X68400D02*X69900D01*
X68400D02*X67900Y72000D01*
Y73000D01*
X68400Y73500D02*X67900Y73000D01*
X68400Y73500D02*X69400D01*
X66700Y71500D02*Y75500D01*
X64200Y71500D01*
Y75500D01*
X62500Y71500D02*Y75500D01*
X61200D02*X60500Y74800D01*
Y72200D02*Y74800D01*
X61200Y71500D02*X60500Y72200D01*
X61200Y71500D02*X63000D01*
X61200Y75500D02*X63000D01*
X57500Y71500D02*Y75500D01*
X55000Y71500D01*
Y75500D01*
X51800Y71500D02*X53100D01*
X53800Y72200D02*X53100Y71500D01*
X53800Y72200D02*Y74800D01*
X53100Y75500D01*
X51800D02*X53100D01*
G54D48*X31300Y102300D02*Y62300D01*
X1300D02*X31300D01*
X1300Y102300D02*Y62300D01*
Y102300D02*X31300D01*
G54D47*X33000Y93000D02*X92000D01*
X33000Y139000D02*Y93000D01*
Y139000D02*X92000D01*
Y113500D02*Y93000D01*
Y139000D02*Y118500D01*
G75*G03X92000Y113500I0J-2500D01*G01*
X33000Y18500D02*X92000D01*
X33000Y64500D02*Y18500D01*
Y64500D02*X92000D01*
Y39000D02*Y18500D01*
Y64500D02*Y44000D01*
G75*G03X92000Y39000I0J-2500D01*G01*
X96500Y109000D02*X100000D01*
X96500D02*X96000Y109500D01*
Y110500D01*
X96500Y111000D01*
X100000D01*
X99200Y112200D02*X100000Y113000D01*
X96000D02*X100000D01*
X96000Y112200D02*Y113700D01*
X96500Y114900D02*X96000Y115400D01*
X96500Y114900D02*X99500D01*
X100000Y115400D01*
Y116400D01*
X99500Y116900D01*
X96500D02*X99500D01*
X96000Y116400D02*X96500Y116900D01*
X96000Y115400D02*Y116400D01*
X97000Y114900D02*X99000Y116900D01*
X96500Y118100D02*X96000Y118600D01*
X96500Y118100D02*X99500D01*
X100000Y118600D01*
Y119600D01*
X99500Y120100D01*
X96500D02*X99500D01*
X96000Y119600D02*X96500Y120100D01*
X96000Y118600D02*Y119600D01*
X97000Y118100D02*X99000Y120100D01*
X28300Y105200D02*X29600D01*
X30300Y105900D02*X29600Y105200D01*
X30300Y105900D02*Y108500D01*
X29600Y109200D01*
X28300D02*X29600D01*
X27100Y105700D02*Y108700D01*
X26600Y109200D01*
X25600D02*X26600D01*
X25600D02*X25100Y108700D01*
Y105700D02*Y108700D01*
X25600Y105200D02*X25100Y105700D01*
X25600Y105200D02*X26600D01*
X27100Y105700D02*X26600Y105200D01*
X23900D02*Y109200D01*
X21400Y105200D01*
Y109200D01*
X20200Y105200D02*Y109200D01*
X17700Y105200D01*
Y109200D01*
X16500Y108400D02*X15700Y109200D01*
Y105200D02*Y109200D01*
X15000Y105200D02*X16500D01*
X13800Y105700D02*X13300Y105200D01*
X13800Y105700D02*Y108700D01*
X13300Y109200D01*
X12300D02*X13300D01*
X12300D02*X11800Y108700D01*
Y105700D02*Y108700D01*
X12300Y105200D02*X11800Y105700D01*
X12300Y105200D02*X13300D01*
X13800Y106200D02*X11800Y108200D01*
X10600Y105700D02*X10100Y105200D01*
X10600Y105700D02*Y108700D01*
X10100Y109200D01*
X9100D02*X10100D01*
X9100D02*X8600Y108700D01*
Y105700D02*Y108700D01*
X9100Y105200D02*X8600Y105700D01*
X9100Y105200D02*X10100D01*
X10600Y106200D02*X8600Y108200D01*
X96500Y37000D02*X100000D01*
X96500D02*X96000Y37500D01*
Y38500D01*
X96500Y39000D01*
X100000D01*
X99200Y40200D02*X100000Y41000D01*
X96000D02*X100000D01*
X96000Y40200D02*Y41700D01*
X96500Y42900D02*X96000Y43400D01*
X96500Y42900D02*X99500D01*
X100000Y43400D01*
Y44400D01*
X99500Y44900D01*
X96500D02*X99500D01*
X96000Y44400D02*X96500Y44900D01*
X96000Y43400D02*Y44400D01*
X97000Y42900D02*X99000Y44900D01*
X99200Y46100D02*X100000Y46900D01*
X96000D02*X100000D01*
X96000Y46100D02*Y47600D01*
M02*
