G04 start of page 7 for group -4062 idx -4062 *
G04 Title: (unknown), soldermask *
G04 Creator: pcb 1.99z *
G04 CreationDate: Tue 11 Mar 2014 08:59:09 PM GMT UTC *
G04 For: jpuls *
G04 Format: Gerber/RS-274X *
G04 PCB-Dimensions (mil): 4500.00 1560.00 *
G04 PCB-Coordinate-Origin: lower left *
%MOIN*%
%FSLAX25Y25*%
%LNBOTTOMMASK*%
%ADD43R,0.0300X0.0300*%
%ADD42C,0.0660*%
%ADD41C,0.0454*%
G54D41*X305000Y96500D03*
X315000D03*
X325000D03*
X335000D03*
X345000D03*
X355000D03*
X375000Y136500D03*
X365000D03*
X355000D03*
X345000D03*
X335000D03*
X325000D03*
X315000D03*
X305000D03*
X172500Y96500D03*
X182500D03*
X192500D03*
X202500D03*
X142500D03*
X152500D03*
X162500D03*
X212500Y136500D03*
X202500D03*
X192500D03*
X182500D03*
X172500D03*
X162500D03*
X152500D03*
X142500D03*
Y21500D03*
X152500D03*
X162500D03*
X172500D03*
X182500D03*
X192500D03*
X202500D03*
X212500D03*
Y96500D03*
Y61500D03*
X202500D03*
X192500D03*
X182500D03*
X172500D03*
X162500D03*
X152500D03*
X142500D03*
G54D42*X21300Y92300D03*
Y82300D03*
Y72300D03*
X11300Y92300D03*
Y82300D03*
Y72300D03*
G54D41*X305000Y21500D03*
X315000D03*
X325000D03*
X335000D03*
X345000D03*
X355000D03*
X365000D03*
X375000D03*
X365000Y96500D03*
Y61500D03*
X375000Y96500D03*
Y61500D03*
X355000D03*
X345000D03*
X335000D03*
X325000D03*
X315000D03*
X305000D03*
G54D43*X35000Y62500D02*Y56500D01*
X40000Y62500D02*Y56500D01*
X90000Y101000D02*Y95000D01*
X85000Y101000D02*Y95000D01*
X80000Y101000D02*Y95000D01*
X75000Y101000D02*Y95000D01*
X70000Y101000D02*Y95000D01*
X65000Y101000D02*Y95000D01*
X60000Y101000D02*Y95000D01*
X55000Y101000D02*Y95000D01*
X50000Y101000D02*Y95000D01*
X45000Y101000D02*Y95000D01*
X40000Y101000D02*Y95000D01*
X35000Y101000D02*Y95000D01*
Y137000D02*Y131000D01*
X40000Y137000D02*Y131000D01*
X45000Y137000D02*Y131000D01*
X50000Y137000D02*Y131000D01*
X55000Y137000D02*Y131000D01*
X60000Y137000D02*Y131000D01*
X65000Y137000D02*Y131000D01*
X70000Y137000D02*Y131000D01*
X75000Y137000D02*Y131000D01*
X80000Y137000D02*Y131000D01*
X85000Y137000D02*Y131000D01*
X90000Y137000D02*Y131000D01*
Y26500D02*Y20500D01*
X85000Y26500D02*Y20500D01*
X80000Y26500D02*Y20500D01*
X75000Y26500D02*Y20500D01*
X70000Y26500D02*Y20500D01*
X65000Y26500D02*Y20500D01*
X60000Y26500D02*Y20500D01*
X55000Y26500D02*Y20500D01*
X50000Y26500D02*Y20500D01*
X45000Y26500D02*Y20500D01*
X40000Y26500D02*Y20500D01*
X35000Y26500D02*Y20500D01*
X45000Y62500D02*Y56500D01*
X50000Y62500D02*Y56500D01*
X55000Y62500D02*Y56500D01*
X60000Y62500D02*Y56500D01*
X65000Y62500D02*Y56500D01*
X70000Y62500D02*Y56500D01*
X75000Y62500D02*Y56500D01*
X80000Y62500D02*Y56500D01*
X85000Y62500D02*Y56500D01*
X90000Y62500D02*Y56500D01*
M02*
