G04 start of page 6 for group -4063 idx -4063 *
G04 Title: (unknown), componentmask *
G04 Creator: pcb 1.99z *
G04 CreationDate: Tue 11 Mar 2014 08:59:09 PM GMT UTC *
G04 For: jpuls *
G04 Format: Gerber/RS-274X *
G04 PCB-Dimensions (mil): 4500.00 1560.00 *
G04 PCB-Coordinate-Origin: lower left *
%MOIN*%
%FSLAX25Y25*%
%LNTOPMASK*%
%ADD40R,0.0572X0.0572*%
%ADD39C,0.0660*%
%ADD38C,0.0454*%
G54D38*X305000Y96500D03*
X315000D03*
X325000D03*
X335000D03*
X345000D03*
X355000D03*
X375000Y136500D03*
X365000D03*
X355000D03*
X345000D03*
X335000D03*
X325000D03*
X315000D03*
X305000D03*
X172500Y96500D03*
X182500D03*
X192500D03*
X202500D03*
X142500D03*
X152500D03*
X162500D03*
X212500Y136500D03*
X202500D03*
X192500D03*
X182500D03*
X172500D03*
X162500D03*
X152500D03*
X142500D03*
Y21500D03*
X152500D03*
X162500D03*
X172500D03*
X182500D03*
X192500D03*
X202500D03*
X212500D03*
Y96500D03*
Y61500D03*
X202500D03*
X192500D03*
X182500D03*
X172500D03*
X162500D03*
X152500D03*
X142500D03*
G54D39*X21300Y92300D03*
Y82300D03*
Y72300D03*
X11300Y92300D03*
Y82300D03*
Y72300D03*
G54D38*X305000Y21500D03*
X315000D03*
X325000D03*
X335000D03*
X345000D03*
X355000D03*
X365000D03*
X375000D03*
X365000Y96500D03*
Y61500D03*
X375000Y96500D03*
Y61500D03*
X355000D03*
X345000D03*
X335000D03*
X325000D03*
X315000D03*
X305000D03*
G54D40*X32107Y51086D02*X32893D01*
X32107Y44000D02*X32893D01*
X42107Y51086D02*X42893D01*
X42107Y44000D02*X42893D01*
X53607D02*X54393D01*
X32107Y119000D02*X32893D01*
X32107Y126086D02*X32893D01*
X42107Y119000D02*X42893D01*
X42107Y126086D02*X42893D01*
X53807Y126100D02*X54593D01*
X53807Y119014D02*X54593D01*
X53607Y51086D02*X54393D01*
M02*
