M48
INCH
T37C0.125
T36C0.020
T35C0.035
T34C0.020
%
T34
X014250Y013650
X014250Y009650
X014250Y006150
X014250Y002150
X015250Y013650
X015250Y009650
X015250Y006150
X015250Y002150
X016250Y013650
X016250Y009650
X016250Y006150
X016250Y002150
X017250Y013650
X017250Y009650
X017250Y006150
X017250Y002150
X018250Y013650
X018250Y009650
X018250Y006150
X018250Y002150
X019250Y013650
X019250Y009650
X019250Y006150
X019250Y002150
X020250Y013650
X020250Y009650
X020250Y006150
X020250Y002150
X021250Y013650
X021250Y009650
X021250Y006150
X021250Y002150
X030500Y013650
X030500Y009650
X030500Y006150
X030500Y002150
X031500Y013650
X031500Y009650
X031500Y006150
X031500Y002150
X032500Y013650
X032500Y009650
X032500Y006150
X032500Y002150
X033500Y013650
X033500Y009650
X033500Y006150
X033500Y002150
X034500Y013650
X034500Y009650
X034500Y006150
X034500Y002150
X035500Y013650
X035500Y009650
X035500Y006150
X035500Y002150
X036500Y013650
X036500Y009650
X036500Y006150
X036500Y002150
X037500Y013650
X037500Y009650
X037500Y006150
X037500Y002150
T36
X001800Y012500
X002150Y005240
X002740Y011530
X002740Y009450
X002770Y006090
X003500Y008110
X004000Y014650
X004000Y011150
X004000Y007150
X004000Y003650
X004500Y014400
X004500Y008400
X004500Y006900
X004500Y000900
X004800Y012500
X005000Y015150
X005000Y008650
X005000Y007650
X005000Y001150
X005500Y007900
X005500Y000400
X006000Y011150
X006000Y003650
X006090Y012510
X006100Y004900
X006400Y011800
X006500Y010650
X006500Y003150
X006600Y004400
X006900Y012200
X007000Y012650
X007000Y008900
X007000Y005150
X007000Y001400
X007500Y012150
X007500Y008650
X007500Y004650
X007500Y001150
X008000Y011650
X008000Y008150
X008000Y004150
X008000Y000650
X008500Y012400
X008500Y004900
X009750Y011400
X009750Y010150
X009750Y003900
X009750Y002650
X010500Y009150
X010500Y001650
X011500Y013700
X012300Y004600
X016250Y011650
X016250Y008650
X016250Y004150
X016250Y001150
X017250Y012400
X017250Y004900
X018250Y011400
X018250Y003900
X022900Y012000
X022900Y004600
T35
X001130Y009230
X001130Y008230
X001130Y007230
X002130Y009230
X002130Y008230
X002130Y007230
T37
X001500Y014100
X001500Y001600
X043500Y014100
X043500Y001600
M30
